# xmcd
#
# Track frame offsets: 
#        150
#        20540
#        39499
#        56773
#        76153
#        91052
#        106989
#        120343
#        135331
#        149768
#        164775
#        179877
#
# Disc length: 2732 seconds
#
# Revision: 0
# Processed by: cddbd v1.5.2PL0 Copyright (c) Steve Scherf et al.
# Submitted via: ExactAudioCopyFreeDBPlugin 1.0
#
DISCID=a30aaa0c
DTITLE=Lisa Mann - Hard Times, Bad Decisions
DYEAR=2016
DGENRE=Blues
TTITLE0=Hard Times, Bad Decisions
TTITLE1=Two Halves Of One Broken Heart
TTITLE2=Certain Kinda Man
TTITLE3=I Go Zoom
TTITLE4=Doghouse
TTITLE5=I Don't Hurt Anymore
TTITLE6=Ain't Nunna Yo Bizness
TTITLE7=My Fathers House
TTITLE8=You Need A Woman
TTITLE9=Play It All The Way
TTITLE10=I Love You All The Time
TTITLE11=Judge A Man Forever
EXTD=
EXTT0=
EXTT1=
EXTT2=
EXTT3=
EXTT4=
EXTT5=
EXTT6=
EXTT7=
EXTT8=
EXTT9=
EXTT10=
EXTT11=
PLAYORDER=
